<mxfile host="app.diagrams.net" modified="2023-03-08T03:39:18.710Z" agent="5.0 (Windows NT 10.0; Win64; x64) AppleWebKit/537.36 (KHTML, like Gecko) Chrome/110.0.0.0 Safari/537.36 Edg/110.0.1587.63" etag="OaO16ZJaSwRBeaE46YXP" version="20.8.20" type="github">
  <diagram name="Page-1" id="7KRnPA2lE_zZvRZOmmRw">
    <mxGraphModel dx="1050" dy="573" grid="1" gridSize="10" guides="1" tooltips="1" connect="1" arrows="1" fold="1" page="1" pageScale="1" pageWidth="1100" pageHeight="850" math="0" shadow="0">
      <root>
        <mxCell id="0" />
        <mxCell id="1" parent="0" />
        <mxCell id="IxuyUcJDz_NpGqc7rvbc-20" value="Etudiant" style="swimlane;fontStyle=0;childLayout=stackLayout;horizontal=1;startSize=26;horizontalStack=0;resizeParent=1;resizeParentMax=0;resizeLast=0;collapsible=1;marginBottom=0;align=center;fontSize=14;" vertex="1" parent="1">
          <mxGeometry x="140" y="110" width="160" height="206" as="geometry" />
        </mxCell>
        <mxCell id="IxuyUcJDz_NpGqc7rvbc-21" value="sid" style="text;strokeColor=none;fillColor=none;spacingLeft=4;spacingRight=4;overflow=hidden;rotatable=0;points=[[0,0.5],[1,0.5]];portConstraint=eastwest;fontSize=12;fontStyle=4" vertex="1" parent="IxuyUcJDz_NpGqc7rvbc-20">
          <mxGeometry y="26" width="160" height="30" as="geometry" />
        </mxCell>
        <mxCell id="IxuyUcJDz_NpGqc7rvbc-22" value="snom" style="text;strokeColor=none;fillColor=none;spacingLeft=4;spacingRight=4;overflow=hidden;rotatable=0;points=[[0,0.5],[1,0.5]];portConstraint=eastwest;fontSize=12;" vertex="1" parent="IxuyUcJDz_NpGqc7rvbc-20">
          <mxGeometry y="56" width="160" height="30" as="geometry" />
        </mxCell>
        <mxCell id="IxuyUcJDz_NpGqc7rvbc-23" value="sexe" style="text;strokeColor=none;fillColor=none;spacingLeft=4;spacingRight=4;overflow=hidden;rotatable=0;points=[[0,0.5],[1,0.5]];portConstraint=eastwest;fontSize=12;" vertex="1" parent="IxuyUcJDz_NpGqc7rvbc-20">
          <mxGeometry y="86" width="160" height="30" as="geometry" />
        </mxCell>
        <mxCell id="IxuyUcJDz_NpGqc7rvbc-24" value="dataNaissance" style="text;strokeColor=none;fillColor=none;spacingLeft=4;spacingRight=4;overflow=hidden;rotatable=0;points=[[0,0.5],[1,0.5]];portConstraint=eastwest;fontSize=12;" vertex="1" parent="IxuyUcJDz_NpGqc7rvbc-20">
          <mxGeometry y="116" width="160" height="30" as="geometry" />
        </mxCell>
        <mxCell id="IxuyUcJDz_NpGqc7rvbc-25" value="niveau" style="text;strokeColor=none;fillColor=none;spacingLeft=4;spacingRight=4;overflow=hidden;rotatable=0;points=[[0,0.5],[1,0.5]];portConstraint=eastwest;fontSize=12;" vertex="1" parent="IxuyUcJDz_NpGqc7rvbc-20">
          <mxGeometry y="146" width="160" height="30" as="geometry" />
        </mxCell>
        <mxCell id="IxuyUcJDz_NpGqc7rvbc-26" value="moyenne" style="text;strokeColor=none;fillColor=none;spacingLeft=4;spacingRight=4;overflow=hidden;rotatable=0;points=[[0,0.5],[1,0.5]];portConstraint=eastwest;fontSize=12;" vertex="1" parent="IxuyUcJDz_NpGqc7rvbc-20">
          <mxGeometry y="176" width="160" height="30" as="geometry" />
        </mxCell>
        <mxCell id="IxuyUcJDz_NpGqc7rvbc-27" value="Dept" style="swimlane;fontStyle=0;childLayout=stackLayout;horizontal=1;startSize=26;horizontalStack=0;resizeParent=1;resizeParentMax=0;resizeLast=0;collapsible=1;marginBottom=0;align=center;fontSize=14;" vertex="1" parent="1">
          <mxGeometry x="430" y="110" width="160" height="86" as="geometry" />
        </mxCell>
        <mxCell id="IxuyUcJDz_NpGqc7rvbc-28" value="dID" style="text;strokeColor=none;fillColor=none;spacingLeft=4;spacingRight=4;overflow=hidden;rotatable=0;points=[[0,0.5],[1,0.5]];portConstraint=eastwest;fontSize=12;fontStyle=4" vertex="1" parent="IxuyUcJDz_NpGqc7rvbc-27">
          <mxGeometry y="26" width="160" height="30" as="geometry" />
        </mxCell>
        <mxCell id="IxuyUcJDz_NpGqc7rvbc-29" value="nombrephds" style="text;strokeColor=none;fillColor=none;spacingLeft=4;spacingRight=4;overflow=hidden;rotatable=0;points=[[0,0.5],[1,0.5]];portConstraint=eastwest;fontSize=12;" vertex="1" parent="IxuyUcJDz_NpGqc7rvbc-27">
          <mxGeometry y="56" width="160" height="30" as="geometry" />
        </mxCell>
        <mxCell id="IxuyUcJDz_NpGqc7rvbc-33" value="Prof" style="swimlane;fontStyle=0;childLayout=stackLayout;horizontal=1;startSize=26;horizontalStack=0;resizeParent=1;resizeParentMax=0;resizeLast=0;collapsible=1;marginBottom=0;align=center;fontSize=14;" vertex="1" parent="1">
          <mxGeometry x="760" y="110" width="160" height="86" as="geometry" />
        </mxCell>
        <mxCell id="IxuyUcJDz_NpGqc7rvbc-34" value="pID" style="text;strokeColor=none;fillColor=none;spacingLeft=4;spacingRight=4;overflow=hidden;rotatable=0;points=[[0,0.5],[1,0.5]];portConstraint=eastwest;fontSize=12;fontStyle=4" vertex="1" parent="IxuyUcJDz_NpGqc7rvbc-33">
          <mxGeometry y="26" width="160" height="30" as="geometry" />
        </mxCell>
        <mxCell id="IxuyUcJDz_NpGqc7rvbc-35" value="pnom" style="text;strokeColor=none;fillColor=none;spacingLeft=4;spacingRight=4;overflow=hidden;rotatable=0;points=[[0,0.5],[1,0.5]];portConstraint=eastwest;fontSize=12;" vertex="1" parent="IxuyUcJDz_NpGqc7rvbc-33">
          <mxGeometry y="56" width="160" height="30" as="geometry" />
        </mxCell>
        <mxCell id="IxuyUcJDz_NpGqc7rvbc-37" value="Section (entité faible)" style="swimlane;fontStyle=0;childLayout=stackLayout;horizontal=1;startSize=26;horizontalStack=0;resizeParent=1;resizeParentMax=0;resizeLast=0;collapsible=1;marginBottom=0;align=center;fontSize=14;" vertex="1" parent="1">
          <mxGeometry x="480" y="517" width="160" height="56" as="geometry" />
        </mxCell>
        <mxCell id="IxuyUcJDz_NpGqc7rvbc-38" value="sectno (clé partielle)" style="text;strokeColor=none;fillColor=none;spacingLeft=4;spacingRight=4;overflow=hidden;rotatable=0;points=[[0,0.5],[1,0.5]];portConstraint=eastwest;fontSize=12;" vertex="1" parent="IxuyUcJDz_NpGqc7rvbc-37">
          <mxGeometry y="26" width="160" height="30" as="geometry" />
        </mxCell>
        <mxCell id="IxuyUcJDz_NpGqc7rvbc-41" value="Cours" style="swimlane;fontStyle=0;childLayout=stackLayout;horizontal=1;startSize=26;horizontalStack=0;resizeParent=1;resizeParentMax=0;resizeLast=0;collapsible=1;marginBottom=0;align=center;fontSize=14;" vertex="1" parent="1">
          <mxGeometry x="410" y="300" width="160" height="86" as="geometry" />
        </mxCell>
        <mxCell id="IxuyUcJDz_NpGqc7rvbc-42" value="cno" style="text;strokeColor=none;fillColor=none;spacingLeft=4;spacingRight=4;overflow=hidden;rotatable=0;points=[[0,0.5],[1,0.5]];portConstraint=eastwest;fontSize=12;fontStyle=4" vertex="1" parent="IxuyUcJDz_NpGqc7rvbc-41">
          <mxGeometry y="26" width="160" height="30" as="geometry" />
        </mxCell>
        <mxCell id="IxuyUcJDz_NpGqc7rvbc-43" value="cnom" style="text;strokeColor=none;fillColor=none;spacingLeft=4;spacingRight=4;overflow=hidden;rotatable=0;points=[[0,0.5],[1,0.5]];portConstraint=eastwest;fontSize=12;" vertex="1" parent="IxuyUcJDz_NpGqc7rvbc-41">
          <mxGeometry y="56" width="160" height="30" as="geometry" />
        </mxCell>
        <mxCell id="IxuyUcJDz_NpGqc7rvbc-45" value="Inscription (entité faible)" style="swimlane;fontStyle=0;childLayout=stackLayout;horizontal=1;startSize=26;horizontalStack=0;resizeParent=1;resizeParentMax=0;resizeLast=0;collapsible=1;marginBottom=0;align=center;fontSize=14;" vertex="1" parent="1">
          <mxGeometry x="470" y="400" width="170" height="56" as="geometry" />
        </mxCell>
        <mxCell id="IxuyUcJDz_NpGqc7rvbc-46" value="note" style="text;strokeColor=none;fillColor=none;spacingLeft=4;spacingRight=4;overflow=hidden;rotatable=0;points=[[0,0.5],[1,0.5]];portConstraint=eastwest;fontSize=12;" vertex="1" parent="IxuyUcJDz_NpGqc7rvbc-45">
          <mxGeometry y="26" width="170" height="30" as="geometry" />
        </mxCell>
        <mxCell id="IxuyUcJDz_NpGqc7rvbc-49" value="" style="endArrow=none;html=1;rounded=0;entryX=-0.005;entryY=0.156;entryDx=0;entryDy=0;entryPerimeter=0;exitX=1.017;exitY=0.084;exitDx=0;exitDy=0;exitPerimeter=0;" edge="1" parent="1" source="IxuyUcJDz_NpGqc7rvbc-20" target="IxuyUcJDz_NpGqc7rvbc-27">
          <mxGeometry relative="1" as="geometry">
            <mxPoint x="470" y="270" as="sourcePoint" />
            <mxPoint x="630" y="270" as="targetPoint" />
          </mxGeometry>
        </mxCell>
        <mxCell id="IxuyUcJDz_NpGqc7rvbc-50" value="1..*" style="text;strokeColor=none;align=center;fillColor=none;html=1;verticalAlign=middle;whiteSpace=wrap;rounded=0;" vertex="1" parent="1">
          <mxGeometry x="300" y="110" width="30" height="20" as="geometry" />
        </mxCell>
        <mxCell id="IxuyUcJDz_NpGqc7rvbc-51" value="0..1" style="text;strokeColor=none;align=center;fillColor=none;html=1;verticalAlign=middle;whiteSpace=wrap;rounded=0;" vertex="1" parent="1">
          <mxGeometry x="400" y="100" width="30" height="20" as="geometry" />
        </mxCell>
        <mxCell id="IxuyUcJDz_NpGqc7rvbc-52" value="" style="endArrow=none;html=1;rounded=0;entryX=1;entryY=0.174;entryDx=0;entryDy=0;entryPerimeter=0;verticalAlign=top;strokeColor=default;exitX=-0.012;exitY=0.147;exitDx=0;exitDy=0;exitPerimeter=0;" edge="1" parent="1" source="IxuyUcJDz_NpGqc7rvbc-33" target="IxuyUcJDz_NpGqc7rvbc-27">
          <mxGeometry relative="1" as="geometry">
            <mxPoint x="750" y="125" as="sourcePoint" />
            <mxPoint x="680" y="240" as="targetPoint" />
          </mxGeometry>
        </mxCell>
        <mxCell id="IxuyUcJDz_NpGqc7rvbc-53" value="1..1" style="text;strokeColor=none;align=center;fillColor=none;html=1;verticalAlign=middle;whiteSpace=wrap;rounded=0;" vertex="1" parent="1">
          <mxGeometry x="590" y="100" width="30" height="20" as="geometry" />
        </mxCell>
        <mxCell id="IxuyUcJDz_NpGqc7rvbc-56" value="0..1" style="text;strokeColor=none;align=center;fillColor=none;html=1;verticalAlign=middle;whiteSpace=wrap;rounded=0;" vertex="1" parent="1">
          <mxGeometry x="720" y="100" width="30" height="20" as="geometry" />
        </mxCell>
        <mxCell id="IxuyUcJDz_NpGqc7rvbc-57" value="Gère&amp;nbsp; ←" style="text;strokeColor=none;align=center;fillColor=none;html=1;verticalAlign=middle;whiteSpace=wrap;rounded=0;" vertex="1" parent="1">
          <mxGeometry x="660" y="100" width="30" height="20" as="geometry" />
        </mxCell>
        <mxCell id="IxuyUcJDz_NpGqc7rvbc-60" value="1..1" style="text;strokeColor=none;align=center;fillColor=none;html=1;verticalAlign=middle;whiteSpace=wrap;rounded=0;" vertex="1" parent="1">
          <mxGeometry x="520" y="201.5" width="30" height="23" as="geometry" />
        </mxCell>
        <mxCell id="IxuyUcJDz_NpGqc7rvbc-61" value="0..*" style="text;strokeColor=none;align=center;fillColor=none;html=1;verticalAlign=middle;whiteSpace=wrap;rounded=0;" vertex="1" parent="1">
          <mxGeometry x="510" y="280" width="30" height="20" as="geometry" />
        </mxCell>
        <mxCell id="IxuyUcJDz_NpGqc7rvbc-65" value="" style="endArrow=diamondThin;endFill=1;endSize=24;html=1;rounded=0;strokeColor=default;entryX=0.535;entryY=1.113;entryDx=0;entryDy=0;entryPerimeter=0;exitX=0.59;exitY=-0.007;exitDx=0;exitDy=0;exitPerimeter=0;" edge="1" parent="1" source="IxuyUcJDz_NpGqc7rvbc-41" target="IxuyUcJDz_NpGqc7rvbc-29">
          <mxGeometry width="160" relative="1" as="geometry">
            <mxPoint x="500" y="290" as="sourcePoint" />
            <mxPoint x="630" y="220" as="targetPoint" />
          </mxGeometry>
        </mxCell>
      </root>
    </mxGraphModel>
  </diagram>
</mxfile>
